# xmcd CD Database Entry
#
# Track frame offsets:
# 150
# 29402
# 55374
# 77374
# 95955
# 110804
# 133039
# 152877
# 160558
# 178070
# 195619
# 212477
# 232726
# 252975
# 273409
# 287695
# 303009
# 324774
#
# Disc length: 4628 seconds
#
# Revision: 1
# Processed by: cddbd v1.4PL0 Copyright (c) Steve Scherf et al.
# Submitted via: tcd 2.0b
#
DISCID=f1121212
DTITLE=Curt Johnson/Tech No Prisoners
DYEAR=1900
DGENRE=
TTITLE0=Tech No Prisoners
TTITLE1=Club Soldiers
TTITLE2=CJMix3
TTITLE3=Game Time 2
TTITLE4=laralocotechno
TTITLE5=SaxLeBeato
TTITLE6=I Watch Her Dance
TTITLE7=Shake Your Head
TTITLE8=In The Forest
TTITLE9=MJ90028
TTITLE10=5&6
TTITLE11=So Much To Think About Vers 1
TTITLE12=So Much To Think About Vers 4
TTITLE13=Desert Dance (Sparring With Abduhl)
TTITLE14=LavaSurfer
TTITLE15=Help Me
TTITLE16=Calvin
TTITLE17=CoolSun
EXTD=
EXTT0=
EXTT1=
EXTT2=
EXTT3=
EXTT4=
EXTT5=
EXTT6=
EXTT7=
EXTT8=
EXTT9=
EXTT10=
EXTT11=
EXTT12=
EXTT13=
EXTT14=
EXTT15=
EXTT16=
EXTT17=
PLAYORDER=
